# xmcd
#
# Track frame offsets:
#	150
#	21403
#	58747
#	64830
#	67621
#	78256
#	91058
#	105483
#	119257
#	134226
#	146518
#	163358
#	177353
#	188291
#	203702
#	220307
#	231516
#	245978
#	261024
#	278954
#
# Disc length: 3956 seconds
#
# Revision: 0
# Processed by: cddbd v1.5.2PL0 Copyright (c) Steve Scherf et al.
# Submitted via: EZCDAudioConverter 2.1.7.1
#
DISCID=2c0f7214
DTITLE=V/A - Fallin' Off The Reel V3
DYEAR=1900
DGENRE=
TTITLE0=Cosmic Force - Ghetto Down
TTITLE1=Cosmic Force - Trinidad Bump
TTITLE2=Quincy Bright - Stay The Nite
TTITLE3=Quincy Bright - Oh Boy
TTITLE4=Timothy McNealy - Funky Movement No. 2
TTITLE5=Timothy McNealy - Sagittarius Black
TTITLE6=El Michels Affair - Musings To Myself [Alternate Mix]
TTITLE7=El Michels Affair - Spread Your Soul
TTITLE8=Black Velvet - Is It Me Your Really Love
TTITLE9=Black Velvet - An Earth Quakes Coming
TTITLE10=The Olympians - How Can I Love (Now That You're Gone)
TTITLE11=The Olympians - Stand Tall
TTITLE12=Ghetto Brothers - Ghetto Brothers
TTITLE13=Ghetto Brothers - I Saw A Tear
TTITLE14=El Michels Affair - Run Fay Run
TTITLE15=El Michels Affair - Red Rooster
TTITLE16=Lee Fields and The Explorers - Problems
TTITLE17=Lee Fields and The Explorers - Honey Dove
TTITLE18=Michael Leonhart and The Avramina 7 - Scopolamine
TTITLE19=Michael Leonhart and The Avramina 7 - Gold Fever
EXTD=
EXTT0=
EXTT1=
EXTT2=
EXTT3=
EXTT4=
EXTT5=
EXTT6=
EXTT7=
EXTT8=
EXTT9=
EXTT10=
EXTT11=
EXTT12=
EXTT13=
EXTT14=
EXTT15=
EXTT16=
EXTT17=
EXTT18=
EXTT19=
PLAYORDER=
